<svg width="285" height="44" viewBox="0 0 285 44" fill="none" xmlns="http://www.w3.org/2000/svg">
<path d="M21 0.833984C15.4317 0.833984 10.0866 3.04784 6.15234 6.98469C2.2141 10.9231 0.00112694 16.2643 0 21.834C0 27.4013 2.21484 32.7464 6.15234 36.6833C10.0866 40.6201 15.4317 42.834 21 42.834C26.5683 42.834 31.9134 40.6201 35.8477 36.6833C39.7852 32.7464 42 27.4013 42 21.834C42 16.2667 39.7852 10.9215 35.8477 6.98469C31.9134 3.04784 26.5683 0.833984 21 0.833984Z" fill="#124984"/>
<path d="M9.50499 21.6121C15.6278 18.9451 19.7097 17.1867 21.7506 16.3371C27.5847 13.9113 28.7955 13.49 29.5862 13.4757C29.7602 13.4729 30.1473 13.5159 30.4 13.7202C30.61 13.8924 30.6691 14.1254 30.6986 14.289C30.7248 14.4524 30.7609 14.8248 30.7314 15.1155C30.4164 18.4361 29.0481 26.4942 28.3525 30.2135C28.0605 31.7872 27.4797 32.3148 26.9186 32.3664C25.698 32.4786 24.7727 31.5605 23.5914 30.7864C21.7441 29.5747 20.7006 28.8206 18.9058 27.6384C16.832 26.2721 18.1773 25.521 19.3586 24.2938C19.667 23.9726 25.0417 19.0852 25.1434 18.6419C25.1566 18.5864 25.1697 18.3797 25.045 18.2708C24.9236 18.1615 24.7431 18.1989 24.6119 18.2284C24.4248 18.2704 21.475 20.2221 15.7525 24.0832C14.9158 24.6587 14.1578 24.9392 13.4753 24.9245C12.7272 24.9084 11.2834 24.5005 10.2105 24.1521C8.89796 23.7245 7.85124 23.4985 7.94312 22.7723C7.98906 22.3943 8.51078 22.0075 9.50499 21.6121Z" fill="white"/>
<circle cx="263" cy="20.834" r="18" fill="white"/>
<circle cx="164" cy="18.834" r="18" fill="white"/>
<path d="M166.001 0C161.881 0 157.853 1.22185 154.427 3.51105C151.001 5.80025 148.331 9.05397 146.754 12.8608C145.177 16.6676 144.764 20.8564 145.568 24.8977C146.372 28.939 148.356 32.6511 151.27 35.5647C154.184 38.4783 157.896 40.4625 161.937 41.2664C165.978 42.0702 170.167 41.6577 173.974 40.0808C177.781 38.504 181.034 35.8337 183.324 32.4077C185.613 28.9817 186.835 24.9538 186.835 20.8333C186.829 15.3097 184.632 10.0138 180.727 6.10804C176.821 2.20222 171.525 0.00551538 166.001 0ZM178.374 16.0688V17.4146C178.374 17.5176 178.354 17.6196 178.314 17.7145C178.274 17.8094 178.215 17.8953 178.141 17.9671C178.067 18.039 177.98 18.0953 177.884 18.1328C177.788 18.1703 177.686 18.1882 177.583 18.1854C175.383 18.0295 173.279 17.2264 171.535 15.8771V25.7271C171.534 26.8173 171.317 27.8965 170.895 28.9016C170.473 29.9068 169.854 30.8177 169.076 31.5813C168.291 32.3638 167.358 32.9824 166.332 33.4009C165.305 33.8193 164.206 34.0294 163.097 34.0188C160.868 34.0149 158.728 33.1402 157.135 31.5813C156.121 30.5592 155.391 29.2908 155.016 27.9008C154.641 26.5109 154.635 25.0474 154.997 23.6542C155.328 22.3167 155.997 21.0875 156.941 20.0854C157.645 19.2252 158.532 18.5331 159.538 18.0598C160.543 17.5866 161.642 17.344 162.753 17.35H164.462V20.8979C164.462 21.001 164.441 21.103 164.399 21.1972C164.358 21.2914 164.296 21.3756 164.219 21.4442C164.143 21.5128 164.052 21.5642 163.954 21.595C163.855 21.6259 163.752 21.6354 163.649 21.6229C162.657 21.325 161.589 21.4238 160.668 21.8986C159.748 22.3733 159.047 23.1869 158.715 24.1678C158.383 25.1487 158.444 26.2204 158.887 27.1568C159.329 28.0932 160.118 28.8213 161.087 29.1875C161.649 29.5104 162.278 29.7 162.924 29.7438C163.424 29.7646 163.924 29.7021 164.399 29.5521C165.193 29.2851 165.883 28.777 166.373 28.0986C166.863 27.4203 167.13 26.6058 167.135 25.7688V7.82084C167.134 7.72244 167.154 7.62496 167.191 7.53398C167.228 7.443 167.283 7.3603 167.353 7.29063C167.422 7.22096 167.505 7.16568 167.596 7.12796C167.687 7.09025 167.784 7.07083 167.883 7.07084H170.83C171.022 7.07057 171.207 7.14391 171.346 7.27572C171.485 7.40753 171.568 7.58775 171.578 7.77917C171.686 8.6983 171.978 9.58624 172.437 10.3899C172.896 11.1935 173.512 11.8963 174.249 12.4563C175.245 13.2039 176.428 13.6624 177.668 13.7813C177.854 13.7971 178.027 13.8798 178.157 14.0138C178.286 14.1479 178.363 14.3243 178.372 14.5104L178.374 16.0688Z" fill="#124984"/>
<path d="M207.9 9.89844L223.644 30.6239H221.205L205.297 9.89844H207.9Z" fill="#124984"/>
<circle cx="214.5" cy="20.334" r="17.5" fill="white"/>
<path d="M224.25 0.833984H204.75C202.164 0.833984 199.684 1.86121 197.856 3.68969C196.027 5.51817 195 7.99812 195 10.584V30.084C195 32.6698 196.027 35.1498 197.856 36.9783C199.684 38.8068 202.164 39.834 204.75 39.834H224.25C226.836 39.834 229.316 38.8068 231.144 36.9783C232.973 35.1498 234 32.6698 234 30.084V10.584C234 7.99812 232.973 5.51817 231.144 3.68969C229.316 1.86121 226.836 0.833984 224.25 0.833984ZM219.726 32.619L213.135 24.039L205.569 32.619H201.396L211.146 21.4845L200.85 8.04898H209.489L215.455 15.849L222.3 8.04898H226.473L217.386 18.384L228.15 32.619H219.726Z" fill="#124984"/>
<path d="M269.14 11.3867H257.775C256.651 11.3867 255.572 11.8167 254.777 12.5822C253.982 13.3476 253.535 14.3857 253.535 15.4682V26.654C253.535 27.1899 253.645 27.7207 253.858 28.2159C254.071 28.7111 254.383 29.161 254.777 29.54C255.171 29.919 255.638 30.2196 256.153 30.4248C256.667 30.6299 257.218 30.7354 257.775 30.7354H269.14C269.697 30.7354 270.248 30.6299 270.763 30.4248C271.277 30.2196 271.745 29.919 272.138 29.54C272.532 29.161 272.845 28.7111 273.058 28.2159C273.271 27.7207 273.38 27.1899 273.38 26.654V15.4884C273.383 14.9508 273.275 14.4182 273.063 13.9209C272.85 13.4236 272.539 12.9715 272.145 12.5905C271.751 12.2094 271.283 11.907 270.767 11.7004C270.252 11.4938 269.699 11.3872 269.14 11.3867ZM263.457 26.9605C262.332 26.9849 261.225 26.6861 260.277 26.1023C259.329 25.5184 258.583 24.6759 258.135 23.6823C257.687 22.6887 257.556 21.5891 257.76 20.5238C257.964 19.4585 258.493 18.4758 259.279 17.7011C260.066 16.9265 261.075 16.395 262.176 16.1745C263.278 15.9541 264.423 16.0546 265.465 16.4633C266.508 16.872 267.4 17.5703 268.028 18.4691C268.656 19.368 268.991 20.4265 268.992 21.5098C269 22.2175 268.864 22.92 268.59 23.577C268.317 24.234 267.911 24.8327 267.397 25.3389C266.883 25.8451 266.271 26.2488 265.595 26.5271C264.918 26.8053 264.192 26.9526 263.457 26.9605ZM269.607 16.0611C269.469 16.0611 269.332 16.0346 269.205 15.983C269.077 15.9315 268.962 15.856 268.865 15.761C268.768 15.666 268.692 15.5533 268.641 15.4297C268.59 15.306 268.566 15.1737 268.568 15.0407C268.568 14.7701 268.68 14.5105 268.879 14.3192C269.078 14.1278 269.347 14.0203 269.628 14.0203C269.91 14.0203 270.179 14.1278 270.378 14.3192C270.577 14.5105 270.688 14.7701 270.688 15.0407C270.693 15.1847 270.664 15.328 270.606 15.4605C270.547 15.5931 270.459 15.7119 270.348 15.8088C270.238 15.9057 270.106 15.9784 269.964 16.022C269.821 16.0655 269.67 16.0788 269.522 16.0611H269.607Z" fill="#124984"/>
<path d="M263.457 0.834237C257.901 0.807496 252.561 2.90642 248.613 6.66926C244.664 10.4321 242.43 15.5506 242.403 20.8988C242.375 26.247 244.555 31.3868 248.464 35.1875C252.374 38.9881 257.691 41.1384 263.247 41.1651C265.998 41.1783 268.725 40.6698 271.272 39.6687C273.819 38.6675 276.136 37.1932 278.091 35.3301C280.046 33.4669 281.601 31.2513 282.666 28.8098C283.732 26.3683 284.287 23.7487 284.301 21.1005C284.315 18.4523 283.787 15.8275 282.747 13.3758C281.706 10.9242 280.175 8.69375 278.239 6.81185C276.304 4.92995 274.002 3.43346 271.466 2.40782C268.929 1.38218 266.208 0.847478 263.457 0.834237ZM276.179 26.4484C276.185 27.353 276.004 28.2499 275.647 29.0868C275.29 29.9237 274.764 30.6841 274.1 31.324C273.435 31.9638 272.646 32.4703 271.776 32.8141C270.907 33.1579 269.975 33.3321 269.035 33.3268H257.882C256.942 33.3319 256.011 33.1575 255.142 32.8137C254.272 32.47 253.483 31.9637 252.818 31.3242C252.154 30.6847 251.627 29.9246 251.27 29.088C250.913 28.2514 250.731 27.3549 250.736 26.4504V15.7123C250.73 14.8076 250.911 13.9108 251.268 13.0739C251.625 12.2369 252.151 11.4765 252.815 10.8367C253.48 10.1969 254.27 9.69039 255.139 9.34658C256.008 9.00278 256.94 8.82851 257.88 8.83386H269.035C269.975 8.82851 270.907 9.00272 271.776 9.3464C272.645 9.69007 273.435 10.1964 274.099 10.836C274.764 11.4756 275.29 12.2358 275.647 13.0725C276.004 13.9092 276.185 14.8058 276.179 15.7103V26.4484Z" fill="#124984"/>
<circle cx="117" cy="21.834" r="18" fill="white"/>
<path d="M121.366 21.5924L116.231 19.2862C115.783 19.0859 115.415 19.3104 115.415 19.7879V24.1319C115.415 24.6095 115.783 24.8339 116.231 24.6337L121.363 22.3274C121.814 22.125 121.814 21.7949 121.366 21.5924ZM117.701 0.833984C105.58 0.833984 95.7539 10.2922 95.7539 21.9599C95.7539 33.6276 105.58 43.0859 117.701 43.0859C129.822 43.0859 139.648 33.6276 139.648 21.9599C139.648 10.2922 129.822 0.833984 117.701 0.833984ZM117.701 30.5423C106.467 30.5423 106.27 29.5675 106.27 21.9599C106.27 14.3524 106.467 13.3775 117.701 13.3775C128.935 13.3775 129.132 14.3524 129.132 21.9599C129.132 29.5675 128.935 30.5423 117.701 30.5423Z" fill="#124984"/>
<circle cx="69" cy="24.834" r="18" fill="white"/>
<path d="M90 21.834C90 10.2361 80.5979 0.833984 69 0.833984C57.4021 0.833984 48 10.2361 48 21.834C48 32.3156 55.6794 41.0035 65.7188 42.5789V27.9043H60.3867V21.834H65.7188V17.2074C65.7188 11.9443 68.854 9.03711 73.6508 9.03711C75.9484 9.03711 78.3516 9.44727 78.3516 9.44727V14.6152H75.7036C73.0948 14.6152 72.2812 16.234 72.2812 17.8948V21.834H78.1055L77.1744 27.9043H72.2812V42.5789C82.3206 41.0035 90 32.3158 90 21.834Z" fill="#124984"/>
</svg>
